<svg width="335" height="661" fill="none" xmlns="http://www.w3.org/2000/svg"><g opacity=".4" fill="#A1C487" fill-opacity=".69"><circle cx="3.886" cy="640.967" r="2.513"/><circle cx="50.368" cy="640.967" r="2.513"/><circle cx="96.849" cy="640.967" r="2.513"/><circle cx="143.331" cy="640.967" r="2.513"/><circle cx="189.813" cy="640.967" r="2.513"/><circle cx="236.295" cy="640.967" r="2.513"/><circle cx="282.777" cy="640.967" r="2.513"/><circle cx="329.259" cy="640.967" r="2.513"/><circle cx="3.886" cy="595.741" r="2.513"/><circle cx="50.368" cy="595.741" r="2.513"/><circle cx="96.849" cy="595.741" r="2.513"/><circle cx="143.331" cy="595.741" r="2.513"/><circle cx="189.813" cy="595.741" r="2.513"/><circle cx="236.295" cy="595.741" r="2.513"/><circle cx="282.777" cy="595.741" r="2.513"/><circle cx="329.259" cy="595.741" r="2.513"/><circle cx="3.886" cy="550.515" r="2.513"/><circle cx="50.368" cy="550.515" r="2.513"/><circle cx="96.849" cy="550.515" r="2.513"/><circle cx="143.331" cy="550.515" r="2.513"/><circle cx="189.813" cy="550.515" r="2.513"/><circle cx="236.295" cy="550.515" r="2.513"/><circle cx="282.777" cy="550.515" r="2.513"/><circle cx="329.259" cy="550.515" r="2.513"/><circle cx="3.886" cy="505.29" r="2.513"/><circle cx="50.368" cy="505.29" r="2.513"/><circle cx="96.849" cy="505.29" r="2.513"/><circle cx="143.331" cy="505.29" r="2.513"/><circle cx="189.813" cy="505.29" r="2.513"/><circle cx="236.295" cy="505.29" r="2.513"/><circle cx="282.777" cy="505.29" r="2.513"/><circle cx="329.259" cy="505.29" r="2.513"/><circle cx="3.886" cy="460.064" r="2.513"/><circle cx="50.368" cy="460.064" r="2.513"/><circle cx="96.849" cy="460.064" r="2.513"/><circle cx="143.331" cy="460.064" r="2.513"/><circle cx="189.813" cy="460.064" r="2.513"/><circle cx="236.295" cy="460.064" r="2.513"/><circle cx="282.777" cy="460.064" r="2.513"/><circle cx="329.259" cy="460.064" r="2.513"/><circle cx="3.886" cy="414.838" r="2.513"/><circle cx="50.368" cy="414.838" r="2.513"/><circle cx="96.849" cy="414.838" r="2.513"/><circle cx="143.331" cy="414.838" r="2.513"/><circle cx="189.813" cy="414.838" r="2.513"/><circle cx="236.295" cy="414.838" r="2.513"/><circle cx="282.777" cy="414.838" r="2.513"/><circle cx="329.259" cy="414.838" r="2.513"/><circle cx="3.886" cy="369.613" r="2.513"/><circle cx="50.368" cy="369.613" r="2.513"/><circle cx="96.849" cy="369.613" r="2.513"/><circle cx="143.331" cy="369.613" r="2.513"/><circle cx="189.813" cy="369.613" r="2.513"/><circle cx="236.295" cy="369.613" r="2.513"/><circle cx="282.777" cy="369.613" r="2.513"/><circle cx="329.259" cy="369.613" r="2.513"/><circle cx="3.886" cy="324.387" r="2.513"/><circle cx="50.368" cy="324.387" r="2.513"/><circle cx="96.849" cy="324.387" r="2.513"/><circle cx="143.331" cy="324.387" r="2.513"/><circle cx="189.813" cy="324.387" r="2.513"/><circle cx="236.295" cy="324.387" r="2.513"/><circle cx="282.777" cy="324.387" r="2.513"/><circle cx="329.259" cy="324.387" r="2.513"/><circle cx="3.886" cy="279.162" r="2.513"/><circle cx="50.368" cy="279.162" r="2.513"/><circle cx="96.849" cy="279.162" r="2.513"/><circle cx="143.331" cy="279.162" r="2.513"/><circle cx="189.813" cy="279.162" r="2.513"/><circle cx="236.295" cy="279.162" r="2.513"/><circle cx="282.777" cy="279.162" r="2.513"/><circle cx="329.259" cy="279.162" r="2.513"/><circle cx="3.886" cy="233.936" r="2.513"/><circle cx="50.368" cy="233.936" r="2.513"/><circle cx="96.849" cy="233.936" r="2.513"/><circle cx="143.331" cy="233.936" r="2.513"/><circle cx="189.813" cy="233.936" r="2.513"/><circle cx="236.295" cy="233.936" r="2.513"/><circle cx="282.777" cy="233.936" r="2.513"/><circle cx="329.259" cy="233.936" r="2.513"/><circle cx="3.886" cy="188.71" r="2.513"/><circle cx="50.368" cy="188.71" r="2.513"/><circle cx="96.849" cy="188.71" r="2.513"/><circle cx="143.331" cy="188.71" r="2.513"/><circle cx="189.813" cy="188.71" r="2.513"/><circle cx="236.295" cy="188.71" r="2.513"/><circle cx="282.777" cy="188.71" r="2.513"/><circle cx="329.259" cy="188.71" r="2.513"/><circle cx="3.886" cy="143.485" r="2.513"/><circle cx="50.368" cy="143.485" r="2.513"/><circle cx="96.849" cy="143.485" r="2.513"/><circle cx="143.331" cy="143.485" r="2.513"/><circle cx="189.813" cy="143.485" r="2.513"/><circle cx="236.295" cy="143.485" r="2.513"/><circle cx="282.777" cy="143.485" r="2.513"/><circle cx="329.259" cy="143.485" r="2.513"/><circle cx="3.886" cy="98.259" r="2.513"/><circle cx="50.368" cy="98.259" r="2.513"/><circle cx="96.849" cy="98.259" r="2.513"/><circle cx="143.331" cy="98.259" r="2.513"/><circle cx="189.813" cy="98.259" r="2.513"/><circle cx="236.295" cy="98.259" r="2.513"/><circle cx="282.777" cy="98.259" r="2.513"/><circle cx="329.259" cy="98.259" r="2.513"/><circle cx="3.886" cy="53.033" r="2.513"/><circle cx="50.368" cy="53.033" r="2.513"/><circle cx="96.849" cy="53.033" r="2.513"/><circle cx="143.331" cy="53.033" r="2.513"/><circle cx="189.813" cy="53.033" r="2.513"/><circle cx="236.295" cy="53.033" r="2.513"/><circle cx="282.777" cy="53.033" r="2.513"/><circle cx="329.259" cy="53.033" r="2.513"/><circle cx="3.886" cy="7.808" r="2.513"/><circle cx="50.368" cy="7.808" r="2.513"/><circle cx="96.849" cy="7.808" r="2.513"/><circle cx="143.331" cy="7.808" r="2.513"/><circle cx="189.813" cy="7.808" r="2.513"/><circle cx="236.295" cy="7.808" r="2.513"/><circle cx="282.777" cy="7.808" r="2.513"/><circle cx="329.259" cy="7.808" r="2.513"/></g></svg>