<svg width="24" height="24" viewBox="0 0 24 24" fill="none"
                                xmlns="http://www.w3.org/2000/svg">
                                <g opacity="0.8">
                                    <path
                                        d="M14.6399 3.47992C14.8199 3.47992 15 3.47992 15.36 3.47992V6.17992C15.18 6.17992 14.82 6.17992 14.46 6.17992C14.1 6.17992 13.74 6.17992 13.56 6.35992C13.38 6.53992 13.3799 6.71992 13.3799 7.13992C13.3799 7.49992 13.3799 7.73992 13.3799 8.09992H15.36V10.3799H13.3799V20.2799H10.32V10.3199H8.69995V8.03992H10.32V7.25992C10.32 5.93992 10.5 4.97992 10.86 4.55992C11.4 3.77992 12.48 3.41992 14.1 3.41992C14.28 3.47992 14.4599 3.47992 14.6399 3.47992Z"
                                        fill="#141414" />
                                </g>
                            </svg>