<svg xmlns="http://www.w3.org/2000/svg" viewBox="0 0 20 12" id="Up"><g fill="none" fill-rule="evenodd"><g fill="#d85b53" fill-rule="nonzero" transform="translate(-10 -12)" class="color000100 svgShape"><g transform="translate(10 12)" fill="#fff" class="color000000 svgShape"><path d="M9.319 5.909c.223-.14.472-.235.732-.278.253.004.496.103.679.278l5.732 5.517c.81.761 2.072.766 2.887.01l.03-.028a1.959 1.959 0 0 0 .008-2.854L10.774.287A1.08 1.08 0 0 0 10.051 0a2.124 2.124 0 0 0-.775.287L.611 8.554a1.959 1.959 0 0 0 .012 2.854l.036.028c.821.756 2.086.751 2.9-.01l5.76-5.517z" fill="#fff" class="color000000 svgShape"></path></g></g></g></svg>